<svg width="62" height="77" viewBox="0 0 62 77" fill="none" xmlns="http://www.w3.org/2000/svg">
<path d="M17.384 53.28C17.384 56.8213 16.744 59.744 15.464 62.048C14.2267 64.352 12.5627 66.144 10.472 67.424C8.424 68.7467 5.97067 69.8773 3.112 70.816L0.296 63.392C2.17333 62.6667 3.58133 61.8347 4.52 60.896C5.45867 59.9573 6.07733 58.8693 6.376 57.632C6.71733 56.3947 6.888 54.816 6.888 52.896V15.648H17.384V53.28ZM35.9045 15.648C42.8592 15.648 48.4272 17.2267 52.6085 20.384C56.8325 23.4987 58.9445 29.2373 58.9445 37.6C58.9445 45.8347 56.8965 51.6373 52.8005 55.008C48.7045 58.336 43.3925 60 36.8645 60H23.5525V15.648H35.9045ZM34.0485 23.264V52.384H37.5045C40.9605 52.384 43.5845 51.3173 45.3765 49.184C47.1685 47.008 48.0645 43.1467 48.0645 37.6C48.0645 33.8027 47.6165 30.8587 46.7205 28.768C45.8245 26.6773 44.6085 25.248 43.0725 24.48C41.5365 23.6693 39.6378 23.264 37.3765 23.264H34.0485Z" fill="#141414"/>
</svg>
